<svg id="Layer_1" data-name="Layer 1" xmlns="http://www.w3.org/2000/svg" viewBox="0 0 566.93 115.31"><defs><style>.cls-1{fill:#272727;}</style></defs><path class="cls-1" d="M242.2,88.21l15.87-9.13q4.68,9.38,15.86,9.37c7,0,11.3-3.12,11.3-7.69s-6-6-16.35-8.17c-14.18-3.13-23.31-8.89-23.31-20.91,0-13,13.22-21.88,27.88-21.88,12.5,0,21.15,3.37,28.84,13l-15.14,8.66c-2.88-5-7.21-7.45-13.46-7.45-6.49,0-10.09,2.88-10.09,6.73,0,4.8,7.21,5.76,16.82,8.17,13.22,3.36,23.32,7.93,23.32,21.15,0,13.7-13.46,23.07-30.29,23.07C259.51,103.11,248.93,99.27,242.2,88.21Zm71.15,13v-61L331.14,29.8v71.39Zm30.29,0V63.7c0-19.23,14.18-33.9,33.89-33.9,20,0,33.89,15.63,33.89,33.9v37.49h-18V64.9c0-11.06-6.73-17.55-15.86-17.55-9.86,0-15.87,7-15.87,17.55v36.29ZM421,66.34c0-21.39,15.38-36.54,37-36.54,13.46,0,25.47,7,31.24,17.79l-15.38,9.14a17.68,17.68,0,0,0-16.1-9.62c-10.58,0-18.51,7.93-18.51,19.23,0,11.06,7.45,19.47,18.51,19.47,7.21,0,13.46-3.61,16.34-9.62l15.38,8.9a35.76,35.76,0,0,1-31.48,18C436.66,103.11,421,87.73,421,66.34Zm78.12,34.85V10.34L516.94,0V35.09a30.23,30.23,0,0,1,16.58-5.29c19.71,0,33.41,13.46,33.41,33.41v38h-18V64.9c0-11.06-6.73-17.55-15.86-17.55-9.86,0-15.87,7-15.87,17.55v36.29Z"/><path class="cls-1" d="M199.13,66.25a36.2,36.2,0,0,1-23.46,34.22c-12.17,4.75-26.43,3-40.18-4.77l-10-5.76a35.44,35.44,0,0,1-7.68,6.61l-32,18.72-.06,0V99.12l.06,0L133.9,70.93a35.17,35.17,0,0,1-1.54,6.91l10,5.72c12.84,7.3,22.42,6.15,28.19,3.9a22.78,22.78,0,0,0,13.47-14,23.23,23.23,0,0,0,1.1-7.14,22.24,22.24,0,0,0-14.82-20.94c-5.81-2.19-15.39-3.23-28.14,4.23L64.08,95.32l-.09.06c-8.66,5.07-17.56,7.68-26,7.73a39.15,39.15,0,0,1-14.09-2.47A36.48,36.48,0,0,1,1.75,55.24,36.88,36.88,0,0,1,23.46,32.48c12.17-4.75,26.43-3.06,40.18,4.77l10,5.76a35.26,35.26,0,0,1,7.69-6.61L82,36l3.73-2.18-15.9-9A7,7,0,0,1,76.7,12.67L99.55,25.74l22.39-13A7,7,0,0,1,129,24.77L65.29,61.55a35.26,35.26,0,0,1,1.48-6.44l-10-5.72c-12.83-7.3-22.4-6.15-28.18-3.89a22.38,22.38,0,0,0,.25,42.06c5.8,2.19,15.39,3.23,28.14-4.23l78.21-45.77c8.66-5.07,17.56-7.67,26-7.72a39.14,39.14,0,0,1,14.08,2.47,36.22,36.22,0,0,1,23.87,33.94"/></svg>